<svg xmlns="http://www.w3.org/2000/svg" height="40px" viewBox="0 -960 960 960" width="40px" fill="#e3e3e3"><path d="M358.67-319.33q31.62 0 54.14-22.17t22.52-53.83q0-31.67-22.52-53.84-22.52-22.16-54.14-22.16-31.08 0-53.21 22.16-22.13 22.17-22.13 53.84 0 31.66 22.13 53.83 22.13 22.17 53.21 22.17Zm296.5-22.17q22.16-22.17 22.16-53.83 0-31.67-22.16-53.84-22.17-22.16-53.84-22.16-31.66 0-53.83 22.16-22.17 22.17-22.17 53.84 0 31.66 22.17 53.83 22.17 22.17 53.83 22.17 31.67 0 53.84-22.17ZM534.14-551.2q22.53-22.53 22.53-54.16 0-31.64-22.52-53.47-22.53-21.84-54.15-21.84-31.07 0-53.2 22.13-22.13 22.13-22.13 53.21 0 31.62 21.83 54.14t53.47 22.52q31.64 0 54.17-22.53ZM480.18-80q-82.83 0-155.67-31.5-72.84-31.5-127.18-85.83Q143-251.67 111.5-324.56T80-480.33q0-82.88 31.5-155.78Q143-709 197.33-763q54.34-54 127.23-85.5T480.33-880q82.88 0 155.78 31.5Q709-817 763-763t85.5 127Q880-563 880-480.18q0 82.83-31.5 155.67Q817-251.67 763-197.46q-54 54.21-127 85.84Q563-80 480.18-80Zm.15-66.67q139 0 236-97.33t97-236.33q0-139-96.87-236-96.88-97-236.46-97-138.67 0-236 96.87-97.33 96.88-97.33 236.46 0 138.67 97.33 236 97.33 97.33 236.33 97.33ZM480-480Z"/></svg>