<svg xmlns="http://www.w3.org/2000/svg" height="40px" viewBox="0 -960 960 960" width="40px" fill="#e3e3e3"><path d="M446.67-282.67h66.66V-534h-66.66v251.33Zm58.83-332.5q10.5-10.5 10.5-25.5t-10.5-25.5q-10.5-10.5-25.5-10.5t-25.5 10.5q-10.5 10.5-10.5 25.5t10.5 25.5q10.5 10.5 25.5 10.5t25.5-10.5ZM480-80.67q-139.67-35-229.83-161.5Q160-368.67 160-520.67v-240l320-120 320 120v240q0 152-90.17 278.5Q619.67-115.67 480-80.67Zm0-69.33q111.33-36.33 182.33-139.67 71-103.33 71-231v-193.66L480-809.67l-253.33 95.34v193.66q0 127.67 71 231Q368.67-186.33 480-150Zm0-330Z"/></svg>