<svg xmlns="http://www.w3.org/2000/svg" height="40px" viewBox="0 -960 960 960" width="40px" fill="#e3e3e3"><path d="M324-111.5Q251-143 197-197t-85.5-127Q80-397 80-480t31.5-156Q143-709 197-763t127-85.5Q397-880 480-880t156 31.5Q709-817 763-763t85.5 127Q880-563 880-480t-31.5 156Q817-251 763-197t-127 85.5Q563-80 480-80t-156-31.5Zm36.67-55.83 58-136.67q-39.34-13.67-69.17-43.17T304-418l-136.67 55.33q28.34 68.67 78.34 119.34 50 50.66 115 76Zm-57.34-374q16.34-41.34 45.84-71.17 29.5-29.83 68.83-43.5l-55.33-136.67Q291.33-764 240.67-713 190-662 167.33-596.67l136 55.34ZM565-395q35-35 35-85t-35-85q-35-35-85-35t-85 35q-35 35-35 85t35 85q35 35 85 35t85-35Zm34.33 227.67q67-26.67 116.84-76.84 49.83-50.16 76.5-116.5L656-418q-15 42-45 71.17-30 29.16-69 42.83l57.33 136.67ZM656-542.67l136.67-56.66q-26.67-66.34-76.84-116.5-50.16-50.17-116.5-76.84l-56 137.34q39 13.66 67.67 42.83 28.67 29.17 45 69.83Z"/></svg>